<?xml version="1.0" encoding="UTF-8" standalone="no"?>
<!-- Created with Inkscape (http://www.inkscape.org/) -->

<svg
   width="249.42525mm"
   height="59.157883mm"
   viewBox="0 0 249.42524 59.157883"
   version="1.1"
   id="svg1"
   xml:space="preserve"
   xmlns="http://www.w3.org/2000/svg"
   xmlns:svg="http://www.w3.org/2000/svg"><defs
     id="defs1" /><path
     style="fill:#000000;fill-opacity:1;stroke-width:0.264583"
     d="M 2.516594,13.690828 25.775216,0.06094962 48.936248,13.690829 41.486984,18.082317 25.677627,8.7463386 9.835741,18.082317"
     id="path17" /><path
     style="fill:#000000;fill-opacity:1;stroke-width:0.264583"
     d="m 23.107793,16.163073 -10.832337,6.375789 0.03253,12.621468 10.897396,-6.31074"
     id="path18" /><path
     style="fill:#000000;fill-opacity:1;stroke-width:0.264583"
     d="m 28.247461,16.130543 10.832336,6.343261 0.06506,12.849166 -10.962455,-6.47338"
     id="path19" /><path
     style="fill:#000000;fill-opacity:1;stroke-width:0.264583"
     d="m 44.121876,22.441273 7.416734,-4.293899 -0.06045,27.258306 -23.185874,13.6171 -0.046,-8.69471 15.871279,-9.33875"
     id="path20" /><path
     style="fill:#000000;fill-opacity:1;stroke-width:0.264583"
     d="M 25.716076,46.04973 36.526951,39.67821 25.762082,33.14568 14.859201,39.4712"
     id="path21" /><path
     style="fill:#000000;fill-opacity:1;stroke-width:0.264583"
     d="m 0,18.217478 7.314591,4.278344 V 41.12733 l 15.871282,9.33875 -0.046,8.6487 -23.116871,-13.6746"
     id="path22" /><path
     id="path23"
     style="stroke-width:0.31472"
     d="M 60.287863,1.9321562 A 1.5296236,1.9321562 0 0 1 58.75824,3.8643124 1.5296236,1.9321562 0 0 1 57.228616,1.9321562 1.5296236,1.9321562 0 0 1 58.75824,0 1.5296236,1.9321562 0 0 1 60.287863,1.9321562 Z" /><path
     id="path23-5"
     style="stroke-width:0.31472"
     d="m 60.43421,57.225727 a 1.5296236,1.9321562 0 0 1 -1.529623,1.932156 1.5296236,1.9321562 0 0 1 -1.529624,-1.932156 1.5296236,1.9321562 0 0 1 1.529624,-1.932156 1.5296236,1.9321562 0 0 1 1.529623,1.932156 z" /><path
     style="fill:#000000;fill-opacity:1;stroke-width:0.264583"
     d="M 60.356876,56.99861 60.264866,1.9781656 H 57.22862 L 57.412639,56.8146"
     id="path24" /><g
     id="text24"
     style="font-size:38.8056px;font-family:'Visitor TT1 BRK';-inkscape-font-specification:'Visitor TT1 BRK, Normal';fill:#000000;fill-opacity:1;stroke:#000000;stroke-width:0;stroke-linecap:butt;stroke-opacity:1;paint-order:stroke fill markers"
     aria-label="TAILOREDCODE"><path
       d="m 67.038826,9.0306854 h 7.76112 V 24.552925 h 3.88056 V 9.0306854 h 7.76112 V 5.1501255 h -19.4028 z M 105.84444,24.552925 H 109.725 V 5.1501255 H 90.322201 V 24.552925 h 3.88056 v -7.76112 H 105.84444 Z M 94.202761,9.0306854 H 105.84444 V 12.911245 H 94.202761 Z m 19.402819,0 h 7.76112 V 20.672365 h -7.76112 v 3.88056 h 19.4028 v -3.88056 h -7.76112 V 9.0306854 h 7.76112 V 5.1501255 h -19.4028 z m 23.28337,15.5222396 h 19.4028 v -3.88056 H 140.76951 V 5.1501255 h -3.88056 z m 23.28338,0 h 19.40279 V 5.1501255 h -19.40279 z m 3.88056,-15.5222396 h 11.64167 V 20.672365 H 164.05289 Z M 183.4557,24.552925 h 3.88056 v -7.76112 h 7.76112 v 3.88056 h 3.88056 v 3.88056 h 3.88056 v -3.88056 h -3.88056 v -3.88056 h 3.88056 V 9.0306854 h -3.88056 V 5.1501255 H 183.4557 Z M 198.97794,9.0306854 V 12.911245 H 187.33626 V 9.0306854 Z m 7.76114,15.5222396 h 19.4028 v -3.88056 h -15.52224 v -3.88056 h 7.76112 v -3.88056 h -7.76112 V 9.0306854 h 15.52224 V 5.1501255 h -19.4028 z m 23.28337,0 h 15.52224 v -3.88056 H 233.90301 V 9.0306854 h 11.64168 V 20.672365 h 3.88056 V 9.0306854 h -3.88056 V 5.1501255 h -15.52224 z"
       id="path1"
       style="fill:#000000;fill-opacity:1;stroke:#000000;stroke-linecap:butt;stroke-opacity:1" /><path
       d="m 67.038826,54.717548 h 19.4028 v -3.88056 H 70.919386 V 39.195309 h 15.52224 v -3.88056 h -19.4028 z m 23.283375,0 H 109.725 V 35.314749 H 90.322201 Z m 3.88056,-15.522239 H 105.84444 V 50.836988 H 94.202761 Z m 19.402819,15.522239 h 15.52224 v -3.88056 H 117.48614 V 39.195309 h 11.64168 v 11.641679 h 3.88056 V 39.195309 h -3.88056 v -3.88056 h -15.52224 z m 23.28337,0 h 19.4028 v -3.88056 h -15.52224 v -3.880559 h 7.76112 v -3.88056 h -7.76112 v -3.88056 h 15.52224 v -3.88056 h -19.4028 z"
       id="path2"
       style="fill:#000000;fill-opacity:1;stroke:#000000;stroke-linecap:butt;stroke-opacity:1" /></g></svg>
